<?xml version="1.0" encoding="UTF-8"?>
<svg width="137px" height="135px" viewBox="0 0 137 135" version="1.1" xmlns="http://www.w3.org/2000/svg" xmlns:xlink="http://www.w3.org/1999/xlink">
    <!-- Generator: Sketch 55.2 (78181) - https://sketchapp.com -->
    <title>header_logo白色</title>
    <desc>Created with Sketch.</desc>
    <g id="Page-1" stroke="none" stroke-width="1" fill="none" fill-rule="evenodd">
        <g id="1" transform="translate(-118.000000, -142.000000)" fill="#666666">
            <g id="header_logo白色" transform="translate(118.000000, 142.000000)">
                <path d="M41.0121641,35.4951767 C46.4409141,15.0545722 64.8366836,0 86.6996641,0 C112.822836,0 134,21.4906063 134,48.0002557 C134,74.5093937 112.822836,96 86.6996641,96 L35.099832,96 C18.4773086,96 5,82.3228734 5,65.4546617 C5,48.5862795 18.4773086,34.9093233 35.099832,34.9093233 C37.115457,34.9093233 39.104207,35.1136987 41.0121641,35.4951767 Z M114.35111,76.0200869 C117.920985,72.387554 120.73365,68.1496277 122.693777,63.4308263 C124.722019,58.5458856 125.75,53.3587642 125.75,48.0070515 C125.75,42.6546507 124.722019,37.4675293 122.693777,32.5832766 C120.73365,27.8637873 117.934169,23.6258609 114.35111,19.9800851 C110.768051,16.3475522 106.603225,13.4853482 101.965142,11.4908174 C97.1651383,9.426976 92.0674898,8.38095238 86.8074128,8.38095238 C81.5480119,8.38095238 76.4503633,9.426976 71.6496831,11.4908174 C67.0121075,13.4853482 62.8476193,16.3337933 59.2643915,19.9800851 C55.6943473,23.6258609 52.8820205,27.8637873 50.9210484,32.5832766 C50.1373019,34.4544929 49.5153076,36.3805729 49.0281914,38.3481017 C54.1126565,41.0857873 58.3315691,45.2554349 61.1842917,50.3182099 L53.6661051,54.6796227 C52.7194231,53.0013757 51.5567333,51.4467871 50.1776977,50.043375 C49.4473615,49.3003921 48.6767985,48.6124449 47.8655016,47.9931205 C45.3506504,46.0668685 42.4568559,44.7320791 39.3742659,44.0716499 C37.9137625,43.7691251 36.4121873,43.6040178 34.8845829,43.6040178 C29.1108536,43.6040178 23.6751646,45.8881743 19.5914681,50.0569619 C15.494757,54.2119907 13.25,59.7430856 13.25,65.6183262 C13.25,71.4933947 15.494757,77.0244897 19.5914681,81.1655875 C23.6751646,85.3348911 29.1108536,87.6190476 34.8845829,87.6190476 L86.8074128,87.6190476 C92.0674898,87.6190476 97.1651383,86.573024 101.965142,84.5091826 C106.603225,82.5139639 110.768051,79.6660347 114.35111,76.0200869 Z M88.25,59.4285714 C79.5515152,59.4285714 72.5,52.2651274 72.5,43.4285714 C72.5,34.5920154 79.5515152,27.4285714 88.25,27.4285714 C96.9484848,27.4285714 104,34.5920154 104,43.4285714 C104,52.2651274 96.9484848,59.4285714 88.25,59.4285714 Z M37.25,73.1428571 C32.6936508,73.1428571 29,69.390577 29,64.7619048 C29,60.1332326 32.6936508,56.3809524 37.25,56.3809524 C41.8063492,56.3809524 45.5,60.1332326 45.5,64.7619048 C45.5,69.390577 41.8063492,73.1428571 37.25,73.1428571 Z" id="同在云"></path>
                <text id="同在云科技" font-family="PangMenZhengDao" font-size="30" font-weight="normal">
                    <tspan x="0" y="134">同在云科技</tspan>
                </text>
            </g>
        </g>
    </g>
</svg>